<svg id="eb9gpinTwLJ1" xmlns="http://www.w3.org/2000/svg" xmlns:xlink="http://www.w3.org/1999/xlink" viewBox="0 0 280 100" shape-rendering="geometricPrecision" text-rendering="geometricPrecision"><path d="M7.0143,53.2088l.00001-.00001v.00001h-.00001ZM7.01431,6.4176h224.91275v46.7912h-6.55379c-8.61402-8.61402-22.58011-8.61402-31.19414,0v0c-8.61402,8.61402-22.58011,8.61402-31.19413,0-.00128-.00128-.00257-.00257-.00385-.00385-8.61433-8.61017-22.57754-8.60888-31.19029.00385h-.00001c-8.61402,8.61402-22.58011,8.61402-31.19413,0-.0035-.0035-.007-.007-.0105-.01051-8.61487-8.60351-22.5731-8.6-31.18362.01051h-.00002c-8.61402,8.61402-22.58011,8.61402-31.19413,0-.00228-.00228-.00455-.00455-.00683-.00683-8.61457-8.60718-22.57554-8.6049-31.18729.00683L7.01431,6.4176Z" transform="matrix(1.489799 0 0 1.28326-33.676526-8.235449)" fill="#d2dbed" stroke-width="0"/></svg>
